HIERARCHY
ROOT joint_Root
{
	OFFSET 0.0 0.0 0.0
	CHANNELS 6 Xposition Yposition Zposition Zrotation Xrotation Yrotation 
	JOINT Hips
	{
		OFFSET 4.5925 91.4895 -427.239
		CHANNELS 6 Xposition Yposition Zposition Zrotation Xrotation Yrotation 
		JOINT Spine
		{
			OFFSET 15.7357 0.0 0.0
			CHANNELS 6 Xposition Yposition Zposition Zrotation Xrotation Yrotation 
			JOINT Chest
			{
				OFFSET 8.98455 -0.406207 0.0
				CHANNELS 6 Xposition Yposition Zposition Zrotation Xrotation Yrotation 
				JOINT Neck
				{
					OFFSET 16.3773 0.0 0.0
					CHANNELS 6 Xposition Yposition Zposition Zrotation Xrotation Yrotation 
					JOINT Head
					{
						OFFSET 6.45672 0.0 0.0
						CHANNELS 6 Xposition Yposition Zposition Zrotation Xrotation Yrotation 
						End Site
						{
							OFFSET 0.0 0.0 0.0
						}
					}
				}
				JOINT Shoulder_L
				{
					OFFSET 12.9942 -0.242716 4.98039
					CHANNELS 6 Xposition Yposition Zposition Zrotation Xrotation Yrotation 
					JOINT UpperArm_L
					{
						OFFSET 5.34809 0.0 0.0
						CHANNELS 6 Xposition Yposition Zposition Zrotation Xrotation Yrotation 
						JOINT LowerArm_L
						{
							OFFSET 24.3286 1.87007e-05 0.0
							CHANNELS 6 Xposition Yposition Zposition Zrotation Xrotation Yrotation 
							JOINT Hand_L
							{
								OFFSET 22.2916 0.0 0.0
								CHANNELS 6 Xposition Yposition Zposition Zrotation Xrotation Yrotation 
								End Site
								{
									OFFSET 0.0 0.0 0.0
								}
							}
						}
					}
				}
				JOINT Shoulder_R
				{
					OFFSET 12.9945 -0.242716 -4.98039
					CHANNELS 6 Xposition Yposition Zposition Zrotation Xrotation Yrotation 
					JOINT UpperArm_R
					{
						OFFSET -5.34813 0.0 0.0
						CHANNELS 6 Xposition Yposition Zposition Zrotation Xrotation Yrotation 
						JOINT LowerArm_R
						{
							OFFSET -24.3289 0.000322201 0.0
							CHANNELS 6 Xposition Yposition Zposition Zrotation Xrotation Yrotation 
							JOINT Hand_R
							{
								OFFSET -22.2915 -0.000108084 0.0
								CHANNELS 6 Xposition Yposition Zposition Zrotation Xrotation Yrotation 
								End Site
								{
									OFFSET 0.0 0.0 0.0
								}
							}
						}
					}
				}
			}
		}
		JOINT UpperLeg_L
		{
			OFFSET -2.19248 -6.46944 0.0
			CHANNELS 6 Xposition Yposition Zposition Zrotation Xrotation Yrotation 
			JOINT LowerLeg_L
			{
				OFFSET 39.0811 0.0 -1.23785e-05
				CHANNELS 6 Xposition Yposition Zposition Zrotation Xrotation Yrotation 
				JOINT Foot_L
				{
					OFFSET 40.9854 0.0 -1.26872e-05
					CHANNELS 6 Xposition Yposition Zposition Zrotation Xrotation Yrotation 
					JOINT Toes_L
					{
						OFFSET 11.7543 0.0 0.0
						CHANNELS 6 Xposition Yposition Zposition Zrotation Xrotation Yrotation 
						End Site
						{
							OFFSET 0.0 0.0 0.0
						}
					}
				}
			}
		}
		JOINT UpperLeg_R
		{
			OFFSET -2.19251 6.46944 0.0
			CHANNELS 6 Xposition Yposition Zposition Zrotation Xrotation Yrotation 
			JOINT LowerLeg_R
			{
				OFFSET -39.0811 -0.00228153 -0.0401928
				CHANNELS 6 Xposition Yposition Zposition Zrotation Xrotation Yrotation 
				JOINT Foot_R
				{
					OFFSET -40.9854 0.0 0.0
					CHANNELS 6 Xposition Yposition Zposition Zrotation Xrotation Yrotation 
					JOINT Toes_R
					{
						OFFSET -11.7543 0.0 0.0
						CHANNELS 6 Xposition Yposition Zposition Zrotation Xrotation Yrotation 
						End Site
						{
							OFFSET 0.0 0.0 0.0
						}
					}
				}
			}
		}
	}
}
MOTION
Frames:	4
Frame Time:	0.0333333
0.000000 0.000000 0.000000 0.000000 0.000000 -0.000000 -2.401240 93.569000 97.727200 -90.531100 -11.749900 165.643000 15.735700 0.000005 -0.000001 35.969200 80.843000 -34.228600 8.984550 -0.406207 -0.000000 3.317510 -14.874000 3.925830 16.377300 -0.000001 -0.000001 -0.017597 -0.645165 -0.240329 6.456720 -0.000001 -0.000000 -4.994460 7.012690 2.200710 12.994200 -0.242716 4.980390 -88.653800 -4.513360 -73.372300 5.348090 -0.000007 -0.000001 -62.243000 13.615600 -32.115400 24.328600 0.000019 0.000005 9.109020 -1.192990 -97.397700 22.291600 -0.000001 0.000005 8.266910 5.439370 -4.265140 12.994500 -0.242716 -4.980390 89.121700 2.287550 -68.991100 -5.348130 -0.000001 -0.000004 -63.578200 20.272100 33.915900 -24.328900 0.000322 -0.000009 -4.538560 -3.842970 -49.812100 -22.291500 -0.000108 -0.000004 10.972800 5.583820 -10.412700 -2.192480 -6.469440 -0.000000 -169.255000 -9.097450 9.160190 39.081100 -0.000007 -0.000012 0.132260 -0.183108 35.840700 40.985400 -0.000006 -0.000013 -2.359310 0.915541 -34.220200 11.754300 -0.000000 0.000003 -0.004753 -0.059062 -18.979700 -2.192510 6.469440 -0.000001 -176.048000 12.604000 133.300000 -39.081100 -0.002282 -0.040193 -0.003168 0.010360 31.967700 -40.985400 0.000008 0.000006 0.832066 4.046760 -67.264300 -11.754300 -0.000006 -0.000006 -0.019205 -0.162846 -23.224900
0.000000 0.000000 0.000000 0.000000 0.000000 -0.000000 -2.766760 92.793100 85.179300 -92.881700 -11.820300 168.422000 15.735700 0.000005 -0.000001 40.353500 80.126500 -39.333600 8.984550 -0.406207 -0.000000 5.300910 -15.038700 2.746670 16.377300 -0.000001 -0.000001 -0.179368 -1.177260 -0.342411 6.456720 -0.000001 -0.000000 -5.439660 6.478570 2.345900 12.994200 -0.242716 4.980390 -88.849000 -4.027670 -74.036200 5.348090 -0.000007 -0.000001 -64.454800 16.355900 -25.886400 24.328600 0.000019 0.000005 7.211420 -0.495712 -93.900400 22.291600 -0.000001 0.000005 8.416070 5.432400 -4.020820 12.994500 -0.242716 -4.980390 88.586900 3.710900 -69.132800 -5.348130 -0.000001 -0.000004 -65.015100 17.770900 31.817200 -24.328900 0.000322 -0.000009 -5.981960 -5.003540 -50.222500 -22.291500 -0.000108 -0.000004 12.295400 5.599620 -11.309300 -2.192480 -6.469440 -0.000000 -173.421000 -2.862670 12.166000 39.081100 -0.000007 -0.000012 0.200001 -0.178832 48.198000 40.985400 -0.000006 -0.000013 2.269360 -5.680160 -34.727000 11.754300 -0.000000 0.000003 -0.003503 -0.046178 -18.455000 -2.192510 6.469440 -0.000001 -174.931000 21.299700 138.996000 -39.081100 -0.002282 -0.040193 -0.128806 0.389774 18.726300 -40.985400 0.000008 0.000006 -8.758040 18.205700 -69.108000 -11.754300 -0.000006 -0.000006 -0.023027 -0.183511 -24.076900
0.000000 0.000000 0.000000 0.000000 0.000000 -0.000000 -2.980990 90.996600 73.009200 -93.339300 -9.922330 170.904000 15.735700 0.000005 -0.000001 48.223600 80.087400 -47.378800 8.984550 -0.406207 -0.000000 7.262780 -13.165000 2.532540 16.377300 -0.000001 -0.000001 -0.169575 -1.322480 -0.688858 6.456720 -0.000001 -0.000000 -6.004630 5.299580 2.120790 12.994200 -0.242716 4.980390 -89.239300 -2.577600 -73.548900 5.348090 -0.000007 -0.000001 -64.664300 20.568600 -20.745800 24.328600 0.000019 0.000005 7.072970 0.584815 -85.318900 22.291600 -0.000001 0.000005 8.251400 5.446270 -4.515920 12.994500 -0.242716 -4.980390 87.922400 5.791280 -70.221900 -5.348130 -0.000001 -0.000004 -65.909600 15.184600 26.875800 -24.328900 0.000322 -0.000009 -6.990550 -5.689910 -51.033400 -22.291500 -0.000108 -0.000004 13.559700 5.617170 -12.416000 -2.192480 -6.469440 -0.000000 -176.431000 -1.442450 10.005100 39.081100 -0.000007 -0.000012 0.299595 -0.121657 67.898600 40.985400 -0.000006 -0.000013 1.737580 -6.885120 -31.152600 11.754300 -0.000000 0.000003 -0.003708 -0.048375 -18.544400 -2.192510 6.469440 -0.000001 -172.159000 26.711400 140.300000 -39.081100 -0.002282 -0.040193 -0.146239 0.377348 21.620400 -40.985400 0.000008 0.000006 -10.334900 15.884400 -71.649400 -11.754300 -0.000006 -0.000006 -0.022361 -0.180029 -23.933200
0.000000 0.000000 0.000000 0.000000 0.000000 -0.000000 -2.922140 88.183700 62.050600 -90.915100 -6.908490 172.291000 15.735700 0.000005 -0.000001 58.946200 80.461600 -57.241700 8.984550 -0.406207 -0.000000 8.821190 -9.776360 4.168370 16.377300 -0.000001 -0.000001 -0.275941 -0.799538 -1.209230 6.456720 -0.000001 -0.000000 -6.811200 4.058840 1.580940 12.994200 -0.242716 4.980390 -89.796500 -0.673804 -73.180400 5.348090 -0.000007 -0.000001 -63.087600 25.656200 -15.845800 24.328600 0.000019 0.000005 8.284830 2.728140 -71.901400 22.291600 -0.000001 0.000005 4.551410 5.462780 -5.091770 12.994500 -0.242716 -4.980390 87.222900 8.719570 -72.250200 -5.348130 -0.000001 -0.000004 -64.119800 13.998000 18.892200 -24.328900 0.000322 -0.000009 -8.713510 -6.282540 -54.465000 -22.291500 -0.000108 -0.000004 14.494700 5.628820 -13.246300 -2.192480 -6.469440 -0.000000 -175.262000 -4.076890 0.668862 39.081100 -0.000007 -0.000012 0.612140 0.022382 92.093100 40.985400 -0.000006 -0.000013 -1.811530 -7.519640 -20.071300 11.754300 -0.000000 0.000003 -0.003610 -0.047330 -18.501900 -2.192510 6.469440 -0.000001 -170.489000 21.135100 137.815000 -39.081100 -0.002282 -0.040193 0.508133 -0.668588 37.057600 -40.985400 0.000008 0.000006 7.196260 4.365340 -71.395500 -11.754300 -0.000006 -0.000006 -0.031805 -0.225622 -25.820800
